<svg xmlns="http://www.w3.org/2000/svg" width="24" height="24" viewBox="0 0 24 24" fill="none">
  <path d="M15.2 13C14.9878 13 14.7843 12.9247 14.6343 12.7908C14.4843 12.6568 14.4 12.4752 14.4 12.2857V6.57143C14.4 6.00311 14.1471 5.45806 13.6971 5.0562C13.247 4.65434 12.6365 4.42857 12 4.42857C11.3635 4.42857 10.753 4.65434 10.3029 5.0562C9.85286 5.45806 9.6 6.00311 9.6 6.57143V12.2857C9.6 12.4752 9.51571 12.6568 9.36569 12.7908C9.21566 12.9247 9.01217 13 8.8 13C8.58783 13 8.38434 12.9247 8.23431 12.7908C8.08429 12.6568 8 12.4752 8 12.2857V6.57143C8 5.62423 8.42143 4.71582 9.17157 4.04605C9.92172 3.37627 10.9391 3 12 3C13.0609 3 14.0783 3.37627 14.8284 4.04605C15.5786 4.71582 16 5.62423 16 6.57143V12.2857C16 12.4752 15.9157 12.6568 15.7657 12.7908C15.6157 12.9247 15.4122 13 15.2 13Z" fill="white"/>
  <path d="M17.1835 20.9998H6.79462C6.21665 20.9997 5.64634 20.8662 5.12719 20.6094C4.60804 20.3527 4.15377 19.9795 3.79902 19.5184C3.44427 19.0572 3.19842 18.5203 3.08022 17.9485C2.96202 17.3767 2.97459 16.7852 3.11697 16.2191L5.22244 7.5327C5.26036 7.37739 5.34977 7.2399 5.47579 7.14311C5.60181 7.04632 5.75682 6.99607 5.91503 7.00073H17.5159C17.6687 6.99366 17.8195 7.0379 17.9448 7.12653C18.0701 7.21516 18.1628 7.34321 18.2085 7.4907L20.8265 16.0021C21.0055 16.5802 21.0467 17.1929 20.9468 17.7902C20.8469 18.3875 20.6087 18.9524 20.2517 19.4389C19.9004 19.9275 19.4387 20.3241 18.905 20.5956C18.3712 20.8672 17.781 21.0057 17.1835 20.9998ZM6.43448 8.40064L4.43289 16.5551C4.34376 16.9149 4.33662 17.2904 4.412 17.6534C4.48739 18.0164 4.64334 18.3573 4.86809 18.6505C5.09284 18.9437 5.38052 19.1815 5.70944 19.3459C6.03837 19.5104 6.39995 19.5972 6.76692 19.5999H17.1558C17.5327 19.6005 17.9044 19.5107 18.2403 19.338C18.5762 19.1652 18.8668 18.9143 19.0881 18.606C19.3158 18.2959 19.4678 17.9358 19.5315 17.555C19.5953 17.1743 19.5692 16.7837 19.4552 16.4151L17.0173 8.40064H6.43448Z" fill="white"/>
</svg>