<svg xmlns="http://www.w3.org/2000/svg" width="25" height="25" viewBox="0 0 25 25" fill="none">
  <path d="M19.7754 3.125C20.3288 3.125 20.8171 3.33659 21.2402 3.75977C21.6634 4.18294 21.875 4.67122 21.875 5.22461V19.7754C21.875 20.3288 21.6634 20.8171 21.2402 21.2402C20.8171 21.6634 20.3288 21.875 19.7754 21.875H5.22461C4.63867 21.875 4.13411 21.6634 3.71094 21.2402C3.32031 20.8171 3.125 20.3288 3.125 19.7754V15.625H5.22461V19.7754H19.7754V5.22461H5.22461V9.375H3.125V5.22461C3.125 4.67122 3.32031 4.18294 3.71094 3.75977C4.13411 3.33659 4.63867 3.125 5.22461 3.125H19.7754ZM10.498 16.2598L13.1836 13.5254H3.125V11.4746H13.1836L10.498 8.74023L11.9629 7.27539L17.1875 12.5L11.9629 17.7246L10.498 16.2598Z" fill="black"/>
</svg>