<svg width="113" height="29" viewBox="0 0 113 29" fill="none" xmlns="http://www.w3.org/2000/svg">
<path d="M6.60933 21.9562C6.11539 21.9562 5.73843 21.8026 5.47845 21.4955C5.21848 21.1884 5.0885 20.7497 5.0885 20.1794V13.8181L5.71243 15.7704L1.11092 8.42196C0.928939 8.11487 0.850948 7.78583 0.876945 7.43487C0.902942 7.06928 1.03293 6.75487 1.2669 6.49164C1.50088 6.22841 1.83234 6.0968 2.2613 6.0968C2.57326 6.0968 2.85273 6.18454 3.09971 6.36003C3.35968 6.53551 3.60665 6.81336 3.84063 7.19358L6.9603 12.2607H6.33636L9.45603 7.19358C9.703 6.79874 9.94348 6.52089 10.1775 6.36003C10.4244 6.18454 10.7104 6.0968 11.0354 6.0968C11.4513 6.0968 11.7763 6.2211 12.0103 6.46971C12.2442 6.70368 12.3677 7.00347 12.3807 7.36906C12.3937 7.72003 12.2832 8.08562 12.0493 8.46583L7.50624 15.7704L8.11067 13.8181V20.1794C8.11067 21.3639 7.61023 21.9562 6.60933 21.9562Z" fill="#FFAB08"/>
<path d="M16.8243 22C15.7974 22 14.9005 21.7734 14.1335 21.32C13.3796 20.8667 12.7947 20.2159 12.3787 19.3678C11.9628 18.5196 11.7548 17.5179 11.7548 16.3626C11.7548 15.4998 11.8718 14.7248 12.1058 14.0374C12.3397 13.3501 12.6777 12.7652 13.1197 12.2826C13.5746 11.7854 14.1141 11.4125 14.738 11.1639C15.3619 10.9007 16.0573 10.7691 16.8243 10.7691C17.8512 10.7691 18.7416 10.9957 19.4955 11.4491C20.2624 11.9024 20.8538 12.5458 21.2698 13.3794C21.6987 14.2129 21.9132 15.2073 21.9132 16.3626C21.9132 17.24 21.7897 18.0224 21.5428 18.7097C21.3088 19.397 20.9708 19.9893 20.5289 20.4865C20.0869 20.9837 19.5475 21.3639 18.9105 21.6271C18.2866 21.8757 17.5912 22 16.8243 22ZM16.8243 19.5213C17.2532 19.5213 17.6237 19.4043 17.9356 19.1704C18.2476 18.9364 18.4946 18.5927 18.6766 18.1394C18.8585 17.6714 18.9495 17.0792 18.9495 16.3626C18.9495 15.2951 18.7546 14.5127 18.3646 14.0155C17.9746 13.5037 17.4612 13.2478 16.8243 13.2478C16.4083 13.2478 16.0378 13.3574 15.7129 13.5768C15.4009 13.7962 15.1539 14.1398 14.972 14.6078C14.803 15.0611 14.7185 15.6461 14.7185 16.3626C14.7185 17.4301 14.9135 18.2271 15.3034 18.7536C15.6934 19.2654 16.2003 19.5213 16.8243 19.5213Z" fill="#FFAB08"/>
<path d="M27.2336 22C26.4276 22 25.7582 21.8319 25.2253 21.4955C24.6923 21.1592 24.2959 20.6547 24.0359 19.982C23.7889 19.2947 23.6654 18.4465 23.6654 17.4374V12.48C23.6654 11.9243 23.7889 11.5076 24.0359 11.2297C24.2959 10.9519 24.6598 10.8129 25.1278 10.8129C25.5957 10.8129 25.9597 10.9519 26.2197 11.2297C26.4796 11.5076 26.6096 11.9243 26.6096 12.48V17.5252C26.6096 18.1686 26.7266 18.6512 26.9606 18.9729C27.1946 19.28 27.565 19.4336 28.072 19.4336C28.6309 19.4336 29.0859 19.2142 29.4368 18.7755C29.8008 18.3222 29.9828 17.7299 29.9828 16.9987V12.48C29.9828 11.9243 30.1063 11.5076 30.3532 11.2297C30.6132 10.9519 30.9772 10.8129 31.4451 10.8129C31.9261 10.8129 32.29 10.9519 32.537 11.2297C32.797 11.5076 32.927 11.9243 32.927 12.48V20.2671C32.927 21.3931 32.4525 21.9562 31.5036 21.9562C31.0357 21.9562 30.6782 21.8099 30.4312 21.5174C30.1842 21.225 30.0608 20.8082 30.0608 20.2671V18.7974L30.3532 19.6529C30.0673 20.3987 29.6578 20.9764 29.1249 21.3858C28.5919 21.7953 27.9615 22 27.2336 22Z" fill="#FFAB08"/>
<path d="M36.726 21.9562C36.2321 21.9562 35.8551 21.8099 35.5951 21.5174C35.3352 21.225 35.2052 20.8082 35.2052 20.2671V12.48C35.2052 11.939 35.3287 11.5295 35.5756 11.2516C35.8356 10.9592 36.1931 10.8129 36.648 10.8129C37.116 10.8129 37.4734 10.9592 37.7204 11.2516C37.9674 11.5295 38.0909 11.939 38.0909 12.48V13.6207H37.8959C38.0519 12.7433 38.3963 12.0633 38.9293 11.5807C39.4622 11.0981 40.1511 10.8276 40.996 10.7691C41.321 10.7398 41.568 10.8349 41.737 11.0542C41.9189 11.259 42.0164 11.6026 42.0294 12.0852C42.0554 12.5385 41.9709 12.8968 41.776 13.16C41.594 13.4233 41.282 13.5841 40.8401 13.6426L40.3916 13.6865C39.6507 13.7596 39.0982 14.0009 38.7343 14.4104C38.3833 14.8198 38.2078 15.4121 38.2078 16.1871V20.2671C38.2078 20.8082 38.0779 21.225 37.8179 21.5174C37.5709 21.8099 37.2069 21.9562 36.726 21.9562Z" fill="#FFAB08"/>
<path d="M44.8978 21.9562C44.4558 21.9562 44.1178 21.8172 43.8839 21.5394C43.6499 21.2615 43.5329 20.874 43.5329 20.3768V7.67616C43.5329 7.17895 43.6564 6.79143 43.9034 6.51358C44.1633 6.23573 44.5143 6.0968 44.9563 6.0968C45.3462 6.0968 45.6517 6.18454 45.8727 6.36003C46.1066 6.52089 46.3211 6.80605 46.5161 7.21551L51.0201 16.4723H50.3572L54.8612 7.21551C55.0562 6.80605 55.2642 6.52089 55.4851 6.36003C55.7191 6.18454 56.0246 6.0968 56.4015 6.0968C56.8435 6.0968 57.1815 6.23573 57.4154 6.51358C57.6624 6.79143 57.7859 7.17895 57.7859 7.67616V20.3768C57.7859 20.874 57.6689 21.2615 57.4349 21.5394C57.2009 21.8172 56.863 21.9562 56.421 21.9562C55.9791 21.9562 55.6346 21.8172 55.3876 21.5394C55.1537 21.2615 55.0367 20.874 55.0367 20.3768V11.4929H55.4656L51.839 18.7974C51.683 19.0753 51.5141 19.2873 51.3321 19.4336C51.1631 19.5652 50.9356 19.631 50.6496 19.631C50.3637 19.631 50.1297 19.5579 49.9477 19.4116C49.7657 19.2654 49.6033 19.0607 49.4603 18.7974L45.7947 11.471H46.2626V20.3768C46.2626 20.874 46.1456 21.2615 45.9117 21.5394C45.6907 21.8172 45.3527 21.9562 44.8978 21.9562Z" fill="#FFAB08"/>
<path d="M65.2921 22C64.1612 22 63.1864 21.7734 62.3674 21.32C61.5615 20.8521 60.9376 20.2013 60.4956 19.3678C60.0667 18.5196 59.8522 17.5252 59.8522 16.3845C59.8522 15.2731 60.0602 14.3007 60.4761 13.4671C60.8921 12.619 61.4705 11.9609 62.2115 11.4929C62.9654 11.0104 63.8168 10.7691 64.7657 10.7691C65.4546 10.7691 66.0785 10.9007 66.6375 11.1639C67.1964 11.4125 67.6774 11.7781 68.0803 12.2607C68.4833 12.7286 68.7888 13.3063 68.9967 13.9936C69.2047 14.6663 69.3087 15.4194 69.3087 16.2529C69.3087 16.5308 69.2307 16.7428 69.0747 16.8891C68.9187 17.0207 68.6913 17.0865 68.3923 17.0865H62.2699V15.3755H67.1834L66.8715 15.6826C66.8715 15.083 66.7935 14.5858 66.6375 14.191C66.4815 13.7815 66.254 13.4744 65.9551 13.2697C65.6691 13.065 65.3116 12.9626 64.8827 12.9626C64.4017 12.9626 63.9923 13.0869 63.6543 13.3355C63.3163 13.5841 63.0564 13.9424 62.8744 14.4104C62.6924 14.8783 62.6014 15.4413 62.6014 16.0994V16.2749C62.6014 17.3863 62.8289 18.2052 63.2838 18.7316C63.7518 19.2581 64.4407 19.5213 65.3506 19.5213C65.6626 19.5213 66.02 19.4774 66.423 19.3897C66.826 19.302 67.2029 19.163 67.5539 18.9729C67.8528 18.8121 68.1193 18.7609 68.3533 18.8194C68.5873 18.8633 68.7693 18.9802 68.8992 19.1704C69.0292 19.3605 69.1007 19.5798 69.1137 19.8284C69.1397 20.077 69.0942 20.3256 68.9772 20.5742C68.8602 20.8082 68.6653 21.0056 68.3923 21.1665C67.9503 21.4443 67.4499 21.6491 66.891 21.7807C66.345 21.9269 65.8121 22 65.2921 22Z" fill="#FFAB08"/>
<path d="M74.2578 22C73.5559 22 72.9255 21.8465 72.3665 21.5394C71.8076 21.2323 71.3721 20.8155 71.0602 20.2891C70.7482 19.7626 70.5922 19.1704 70.5922 18.5123C70.5922 17.7226 70.7742 17.1011 71.1382 16.6478C71.5021 16.1798 72.0935 15.8508 72.9125 15.6607C73.7314 15.4559 74.8168 15.3536 76.1686 15.3536H77.202V17.0645H76.1881C75.5252 17.0645 74.9857 17.1084 74.5698 17.1962C74.1668 17.2693 73.8744 17.4009 73.6924 17.591C73.5234 17.7811 73.4389 18.0443 73.4389 18.3807C73.4389 18.7901 73.5624 19.1265 73.8094 19.3897C74.0693 19.6529 74.4398 19.7845 74.9207 19.7845C75.2977 19.7845 75.6292 19.6895 75.9151 19.4994C76.2141 19.2947 76.4481 19.0241 76.6171 18.6878C76.786 18.3368 76.8705 17.942 76.8705 17.5033V14.9807C76.8705 14.3372 76.7406 13.8839 76.4806 13.6207C76.2206 13.3428 75.7787 13.2039 75.1547 13.2039C74.8038 13.2039 74.4203 13.2551 74.0043 13.3574C73.6014 13.4452 73.1529 13.5987 72.659 13.8181C72.373 13.9643 72.1195 14.0009 71.8986 13.9278C71.6776 13.84 71.5086 13.6938 71.3916 13.4891C71.2746 13.2697 71.2161 13.0357 71.2161 12.7871C71.2161 12.5239 71.2811 12.2753 71.4111 12.0413C71.5411 11.7927 71.7556 11.6099 72.0546 11.4929C72.6655 11.2151 73.2374 11.025 73.7704 10.9226C74.3163 10.8202 74.8168 10.7691 75.2717 10.7691C76.2726 10.7691 77.0915 10.9372 77.7284 11.2736C78.3784 11.5953 78.8658 12.0998 79.1908 12.7871C79.5158 13.4598 79.6782 14.3299 79.6782 15.3974V20.2671C79.6782 20.8082 79.5612 21.225 79.3273 21.5174C79.0933 21.8099 78.7553 21.9562 78.3134 21.9562C77.8714 21.9562 77.527 21.8099 77.28 21.5174C77.046 21.225 76.929 20.8082 76.929 20.2671V19.4555L77.0655 19.5871C76.9875 20.0843 76.8185 20.5157 76.5586 20.8813C76.3116 21.2323 75.9931 21.5101 75.6032 21.7149C75.2132 21.905 74.7648 22 74.2578 22Z" fill="#FFAB08"/>
<path d="M85.3256 22C84.1687 22 83.3043 21.6417 82.7324 20.9252C82.1605 20.194 81.8745 19.1119 81.8745 17.6787V7.78583C81.8745 7.23014 81.998 6.81336 82.245 6.53551C82.5049 6.24304 82.8754 6.0968 83.3563 6.0968C83.8243 6.0968 84.1818 6.24304 84.4287 6.53551C84.6887 6.81336 84.8187 7.23014 84.8187 7.78583V17.5471C84.8187 18.1467 84.9292 18.5927 85.1501 18.8852C85.3841 19.163 85.6896 19.302 86.0665 19.302C86.1705 19.302 86.268 19.2947 86.359 19.28C86.45 19.2654 86.5475 19.2581 86.6515 19.2581C86.8595 19.2288 87.0024 19.302 87.0804 19.4774C87.1714 19.6383 87.2169 19.9673 87.2169 20.4645C87.2169 20.9033 87.1389 21.2396 86.9829 21.4736C86.827 21.6929 86.5865 21.8392 86.2615 21.9123C86.1315 21.9269 85.9821 21.9415 85.8131 21.9562C85.6441 21.9854 85.4816 22 85.3256 22Z" fill="#FFAB08"/>
<path d="M107.141 6.36774L109.246 6.29102V14.8836H106.707L107.141 6.36774Z" fill="white"/>
<ellipse cx="100.661" cy="21.1746" rx="2.50514" ry="3.68254" fill="white"/>
<path d="M96.0658 9.16795C96.0658 11.2018 94.844 10.8558 93.4605 10.8558C92.0769 10.8558 91.1558 10.3187 91.1558 9.5899C91.1558 7.55609 92.1771 7.28832 93.5607 7.28832C94.9442 7.28832 96.0658 7.13414 96.0658 9.16795Z" fill="white"/>
<path d="M89.9109 2.56016C89.7876 2.63945 89.6249 2.80937 89.541 2.93965L89.3931 3.1832V6.21914V9.26074L89.5213 9.64023C89.9849 11.0053 90.9812 11.9115 92.1796 12.0531L92.5002 12.0928L92.5249 18.9463L92.5495 25.7998L92.658 26.0037C92.7222 26.117 92.8652 26.2812 92.9786 26.3719C93.1611 26.5191 93.2252 26.5361 93.5606 26.5361C93.891 26.5361 93.9601 26.5191 94.1327 26.3832C94.2363 26.2982 94.3793 26.134 94.4484 26.015L94.5717 25.8055L94.5963 18.952L94.621 12.0928L94.9416 12.0531C96.1696 11.9115 97.2448 10.8977 97.6196 9.54394C97.7281 9.15312 97.7281 9.09082 97.7281 6.16816V3.18887L97.595 2.96797C97.378 2.6168 97.1511 2.46953 96.7713 2.44687C96.3669 2.42422 96.0759 2.57715 95.854 2.93965L95.706 3.1832L95.6814 4.60488L95.6567 6.03223H95.1388H94.621L94.5963 4.61055C94.5717 3.21152 94.5717 3.18887 94.4484 2.98496C94.2412 2.62812 93.9897 2.46953 93.6149 2.44687C93.2104 2.42422 92.9194 2.57715 92.6975 2.93965L92.5495 3.1832L92.5249 4.60488L92.5002 6.03223H91.9824H91.4645L91.4398 4.61055L91.4152 3.18887L91.282 2.96797C91.065 2.6168 90.8381 2.46953 90.4584 2.44687C90.1871 2.42988 90.0934 2.45254 89.9109 2.56016ZM95.632 8.60937C95.632 8.95488 95.3904 9.33437 95.0402 9.54961C94.8824 9.6459 94.7443 9.65723 93.5606 9.65723C92.3177 9.65723 92.2438 9.65156 92.0563 9.53262C91.721 9.32871 91.4892 8.94922 91.4892 8.60937V8.43945H93.5606H95.632V8.60937Z" fill="#FFAB08"/>
<path d="M100.135 2.56016C100.011 2.63946 99.8487 2.80938 99.7648 2.93965L99.6169 3.18321L99.5922 9.49863L99.5676 15.8141L99.1533 15.9557C98.1175 16.2955 97.3432 17.0092 96.9092 18.0117C96.5294 18.901 96.4653 19.2691 96.4653 20.5605C96.4653 21.5064 96.4801 21.733 96.5689 22.1465C97.0522 24.3385 98.1225 25.8338 99.6169 26.4059C99.9079 26.5135 100.066 26.5361 100.628 26.5361C101.19 26.5361 101.348 26.5135 101.639 26.4059C103.133 25.8338 104.204 24.3385 104.687 22.1465C104.776 21.733 104.791 21.5064 104.791 20.5605C104.791 19.609 104.776 19.3938 104.682 19.0029C104.312 17.434 103.429 16.3918 102.103 15.9557L101.688 15.8141L101.664 9.5043L101.639 3.18887L101.506 2.96797C101.289 2.6168 101.062 2.46953 100.682 2.44688C100.411 2.42988 100.317 2.45254 100.135 2.56016ZM101.6 18.2949C102.152 18.5102 102.512 19.0029 102.65 19.7166C102.744 20.2094 102.69 21.4441 102.551 21.9482C102.295 22.8771 101.807 23.6588 101.279 23.9646C100.949 24.1572 100.312 24.1629 99.9868 23.9703C99.4245 23.6361 98.9708 22.9111 98.6946 21.9199C98.596 21.5461 98.5812 21.3818 98.5812 20.5605C98.5812 19.6486 98.5861 19.6203 98.7242 19.2691C98.9708 18.6574 99.4738 18.2609 100.135 18.159C100.135 18.159 101.294 18.1816 101.6 18.2949Z" fill="#FFAB08"/>
<path d="M109.644 2.5375C109.013 2.91699 108.036 3.94785 107.434 4.85977C105.935 7.15371 105.062 10.3936 104.86 14.4434C104.786 15.9273 104.82 16.1482 105.161 16.5391C105.491 16.9186 105.58 16.9355 107.454 16.9355H109.062V21.3139V25.6979L109.175 25.9357C109.235 26.0717 109.383 26.2586 109.501 26.3605C109.693 26.5191 109.743 26.5361 110.093 26.5361C110.428 26.5361 110.497 26.5191 110.67 26.3832C110.773 26.2982 110.916 26.134 110.985 26.015L111.109 25.8055V14.5V3.18887L110.976 2.96797C110.759 2.61113 110.532 2.46953 110.152 2.44688C109.905 2.43555 109.782 2.45254 109.644 2.5375ZM109.062 10.4785V14.5H108.016H106.976L107.01 13.9166C107.099 12.359 107.43 10.4785 107.859 9.09082C108.145 8.17324 108.914 6.45703 109.037 6.45703C109.052 6.45703 109.062 8.26387 109.062 10.4785Z" fill="#FFAB08"/>
</svg>
