<svg xmlns="http://www.w3.org/2000/svg" width="24" height="24" viewBox="0 0 24 24" fill="none">
  <path fill-rule="evenodd" clip-rule="evenodd" d="M22 12C22 17.5228 17.5228 22 12 22C6.47715 22 2 17.5228 2 12C2 6.47715 6.47715 2 12 2C17.5228 2 22 6.47715 22 12ZM5.9792 18C7.51821 19.5443 9.6475 20.5 12 20.5C14.3525 20.5 16.4818 19.5443 18.0208 18C17.3797 17.3567 16.6379 16.8186 15.8224 16.408C14.6724 15.829 13.4059 15.5188 12.1185 15.5008C10.8311 15.4829 9.55642 15.7576 8.39072 16.3043C7.49221 16.7257 6.67655 17.3002 5.9792 18ZM5.0146 16.8443C4.05971 15.4699 3.5 13.8003 3.5 12C3.5 7.30558 7.30558 3.5 12 3.5C16.6944 3.5 20.5 7.30558 20.5 12C20.5 13.8003 19.9403 15.4699 18.9854 16.8443C18.2539 16.1302 17.4152 15.5305 16.497 15.0682C15.144 14.387 13.654 14.0221 12.1394 14.001C10.6248 13.9799 9.1252 14.3031 7.75378 14.9463C6.73849 15.4225 5.8131 16.0648 5.0146 16.8443ZM15.3333 10C15.3333 11.8409 13.841 13.3333 12 13.3333C10.1591 13.3333 8.66667 11.8409 8.66667 10C8.66667 8.15905 10.1591 6.66667 12 6.66667C13.841 6.66667 15.3333 8.15905 15.3333 10ZM9.83333 10C9.83333 11.1966 10.8034 12.1667 12 12.1667C13.1966 12.1667 14.1667 11.1966 14.1667 10C14.1667 8.80338 13.1966 7.83333 12 7.83333C10.8034 7.83333 9.83333 8.80338 9.83333 10Z" fill="white"/>
</svg>