<svg xmlns="http://www.w3.org/2000/svg" width="25" height="25" viewBox="0 0 25 25" fill="none">
  <path d="M14.1406 7.90625C13.884 7.90625 13.653 8.00665 13.4772 8.16745L13.4752 8.1648L9.5377 11.7742C9.3349 11.9612 9.21875 12.2237 9.21875 12.5C9.21875 12.7763 9.3349 13.0388 9.5377 13.2258L13.4752 16.8352L13.4772 16.8326C13.653 16.9934 13.884 17.0938 14.1406 17.0938C14.684 17.0938 15.125 16.6528 15.125 16.1094C15.125 15.8226 15.0003 15.566 14.8041 15.3862L14.8061 15.3836L11.66 12.5L14.8061 9.61579L14.8041 9.61315C15.0003 9.434 15.125 9.17805 15.125 8.89061C15.125 8.34725 14.684 7.90625 14.1406 7.90625ZM12.5 2C6.70139 2 2 6.70139 2 12.5C2 18.2986 6.70139 23 12.5 23C18.2986 23 23 18.2986 23 12.5C23 6.70139 18.2986 2 12.5 2ZM12.5 21.0312C7.796 21.0312 3.96875 17.204 3.96875 12.5C3.96875 7.796 7.796 3.96875 12.5 3.96875C17.204 3.96875 21.0312 7.796 21.0312 12.5C21.0312 17.204 17.204 21.0312 12.5 21.0312Z" fill="#000"/>
</svg>