<svg xmlns="http://www.w3.org/2000/svg" width="25" height="25" viewBox="0 0 25 25" fill="none">
  <path fill-rule="evenodd" clip-rule="evenodd" d="M20.7948 13.2761C21.5577 14.021 22.363 14.7218 23.0472 15.5418C23.3495 15.9062 23.6357 16.2822 23.8546 16.7051C24.1648 17.3062 23.8839 17.9678 23.3448 18.0037L19.9941 18.0022C19.1299 18.0739 18.4405 17.7259 17.8608 17.1351C17.3969 16.6625 16.9673 16.1596 16.5212 15.6712C16.3384 15.4715 16.1469 15.2837 15.9183 15.1352C15.4609 14.8383 15.0638 14.9292 14.8024 15.4062C14.5362 15.8914 14.4758 16.4287 14.4497 16.9695C14.4138 17.7585 14.1753 17.966 13.3827 18.0021C11.6889 18.082 10.0814 17.8257 8.58814 16.9712C7.27158 16.218 6.25065 15.1546 5.36204 13.9507C3.63191 11.6065 2.30696 9.03059 1.11616 6.38252C0.848117 5.78591 1.04414 5.46565 1.70242 5.45432C2.79551 5.43308 3.88846 5.43459 4.98284 5.45281C5.42711 5.45931 5.72122 5.71412 5.89276 6.13383C6.48416 7.58799 7.2078 8.9715 8.11614 10.2539C8.35803 10.5953 8.60469 10.9367 8.95593 11.177C9.3445 11.4431 9.64035 11.3549 9.82315 10.9221C9.93915 10.6476 9.98993 10.352 10.0161 10.058C10.1027 9.04669 10.1141 8.03709 9.9622 7.02931C9.86895 6.40036 9.51468 5.9932 8.88708 5.87418C8.56683 5.81349 8.61451 5.69432 8.76958 5.51152C9.0389 5.19625 9.29221 5 9.79716 5H13.584C14.1801 5.11766 14.3125 5.38547 14.3941 5.98534L14.3974 10.1917C14.3909 10.4239 14.5134 11.113 14.9317 11.2667C15.2664 11.3762 15.4871 11.1083 15.6879 10.8961C16.5946 9.93379 17.2417 8.79656 17.8198 7.61897C18.0764 7.10118 18.2969 6.56344 18.5107 6.02614C18.6691 5.62744 18.9177 5.43127 19.3668 5.43996L23.0114 5.44321C23.1194 5.44321 23.2288 5.4448 23.3334 5.46271C23.9476 5.56737 24.1159 5.83156 23.9262 6.43127C23.6273 7.37217 23.0458 8.15627 22.4772 8.94399C21.8694 9.78499 21.2194 10.5972 20.6167 11.4432C20.0629 12.2157 20.1069 12.6051 20.7948 13.2761Z" fill="#fff"/>
</svg>